<svg xmlns="http://www.w3.org/2000/svg" xmlns:xlink="http://www.w3.org/1999/xlink" width="1080" zoomAndPan="magnify" viewBox="0 0 810 1439.999935" height="1920" preserveAspectRatio="xMidYMid meet" version="1.0"><defs><filter x="0%" y="0%" width="100%" height="100%" id="12e5fdcbcd"><feColorMatrix values="0 0 0 0 1 0 0 0 0 1 0 0 0 0 1 0 0 0 1 0" color-interpolation-filters="sRGB"/></filter><mask id="1d6e7d0097"><g filter="url(#12e5fdcbcd)"><rect x="-81" width="972" fill="#000000" y="-143.999994" height="1727.999922" fill-opacity="0.76"/></g></mask><clipPath id="ecf8726da2"><path d="M 0 102 L 810 102 L 810 649 L 0 649 Z M 0 102 " clip-rule="nonzero"/></clipPath><clipPath id="013274343d"><path d="M 884.894531 126.636719 L 748.339844 1508.15625 L -570.480469 1377.800781 L -433.929688 -3.71875 Z M 884.894531 126.636719 " clip-rule="nonzero"/></clipPath><clipPath id="4237281519"><path d="M 884.894531 126.636719 L 748.339844 1508.15625 L -570.480469 1377.800781 L -433.929688 -3.71875 Z M 884.894531 126.636719 " clip-rule="nonzero"/></clipPath><clipPath id="86360b9670"><rect x="0" width="810" y="0" height="649"/></clipPath></defs><g mask="url(#1d6e7d0097)"><g transform="matrix(1, 0, 0, 1, 0, 791)"><g clip-path="url(#86360b9670)"><g clip-path="url(#ecf8726da2)"><g clip-path="url(#013274343d)"><g clip-path="url(#4237281519)"><path fill="#ffffff" d="M -522.351562 1146.945312 C -507.582031 1176.816406 -483 1199.789062 -453.558594 1214.929688 C -391.824219 1246.683594 -318.339844 1244.601562 -251.058594 1239.609375 C -177.777344 1234.171875 -91.789062 1226.320312 -27.945312 1270.460938 C 4.199219 1292.6875 23.757812 1326.59375 46.511719 1357.40625 C 69.355469 1388.335938 97.113281 1413.109375 133.605469 1426.554688 C 207.894531 1453.921875 288.621094 1433.667969 353.984375 1393.507812 C 372.8125 1381.765625 390.75 1368.78125 407.785156 1354.5625 C 428.746094 1353.523438 449.6875 1353.574219 469.253906 1352.597656 C 501.808594 1350.972656 534.886719 1347.226562 565.132812 1334.316406 C 572.367188 1331.167969 579.347656 1327.523438 586.066406 1323.390625 C 592.785156 1319.257812 599.183594 1314.667969 605.253906 1309.632812 C 611.328125 1304.59375 617.015625 1299.152344 622.316406 1293.308594 C 627.621094 1287.46875 632.484375 1281.28125 636.914062 1274.75 C 674.171875 1220.414062 682.992188 1150.527344 678.855469 1086.183594 C 677.796875 1069.914062 675.800781 1053.757812 672.875 1037.71875 C 668.765625 1015.105469 663.273438 992.1875 664.195312 969.054688 C 665.984375 924.113281 696.855469 886.703125 718.070312 849.042969 C 739.917969 810.34375 759.277344 770.4375 776.148438 729.324219 C 793.015625 688.210938 807.261719 646.207031 818.890625 603.3125 C 840.867188 521.847656 854.308594 435.867188 841.15625 351.71875 C 829.226562 275.410156 793.351562 204.566406 732.742188 155.578125 C 725.746094 149.84375 718.453125 144.523438 710.855469 139.613281 C 703.261719 134.703125 695.414062 130.234375 687.3125 126.210938 C 679.210938 122.1875 670.910156 118.632812 662.410156 115.546875 C 653.90625 112.464844 645.257812 109.867188 636.460938 107.757812 C 599.199219 99.148438 561.035156 102.25 524.574219 113.121094 C 485.089844 124.894531 448.332031 143.5625 410.453125 159.460938 C 391.085938 167.539062 371.289062 174.375 351.058594 179.960938 C 330.832031 185.546875 310.332031 189.847656 289.5625 192.851562 C 204.367188 205.488281 117.894531 201.273438 32.144531 206.03125 C -40.300781 210.050781 -111.78125 222.757812 -177.710938 254.234375 C -236.863281 282.472656 -291.164062 325.855469 -319.269531 386.355469 C -335.273438 420.804688 -340.484375 458.460938 -339.320312 496.1875 C -337.984375 539.472656 -329.800781 582.191406 -328.191406 625.449219 C -327.679688 635.628906 -327.800781 645.804688 -328.558594 655.96875 C -329.316406 666.132812 -330.699219 676.214844 -332.710938 686.207031 C -334.722656 696.199219 -337.347656 706.027344 -340.585938 715.695312 C -343.824219 725.359375 -347.648438 734.789062 -352.0625 743.976562 C -369.402344 779.648438 -393.984375 811.355469 -418.757812 842.105469 C -443.5625 872.902344 -469.753906 902.925781 -490.570312 936.660156 C -510.445312 968.863281 -526.3125 1003.914062 -533.660156 1041.1875 C -540.628906 1076.5625 -538.507812 1114.257812 -522.351562 1146.945312 Z M -522.351562 1146.945312 " fill-opacity="1" fill-rule="nonzero"/></g></g></g></g></g></g></svg>